<?xml version="1.0" encoding="UTF-8" standalone="no"?>
<!DOCTYPE svg PUBLIC "-//W3C//DTD SVG 1.1//EN" "http://www.w3.org/Graphics/SVG/1.1/DTD/svg11.dtd">
<!-- 由 Microsoft Visio, SVG Export 生成 structure.svg Page-1 -->
<svg xmlns="http://www.w3.org/2000/svg" xmlns:xlink="http://www.w3.org/1999/xlink" xmlns:ev="http://www.w3.org/2001/xml-events"
		xmlns:v="http://schemas.microsoft.com/visio/2003/SVGExtensions/" width="8.10668in" height="4.76022in"
		viewBox="0 0 583.681 342.736" xml:space="preserve" color-interpolation-filters="sRGB" class="st5">
	<v:documentProperties v:langID="2052" v:metric="true" v:viewMarkup="false">
		<v:userDefs>
			<v:ud v:nameU="msvNoAutoConnect" v:val="VT0(1):26"/>
		</v:userDefs>
	</v:documentProperties>

	<style type="text/css">
	<![CDATA[
		.st1 {fill:#ffffff;stroke:#000000;stroke-linecap:round;stroke-linejoin:round;stroke-width:0.24}
		.st2 {fill:#000000;font-family:宋体;font-size:1.99999em}
		.st3 {stroke:#000000;stroke-linecap:round;stroke-linejoin:round;stroke-width:0.75}
		.st4 {fill:#000000;stroke:#000000;stroke-linecap:round;stroke-linejoin:round;stroke-width:0.24}
		.st5 {fill:none;fill-rule:evenodd;font-size:12px;overflow:visible;stroke-linecap:square;stroke-miterlimit:3}
	]]>
	</style>

	<g v:mID="0" v:index="1" v:groupContext="foregroundPage">
		<title>页-1</title>
		<v:pageProperties v:drawingScale="0.0393701" v:pageScale="0.0393701" v:drawingUnits="24" v:shadowOffsetX="8.50394"
				v:shadowOffsetY="-8.50394"/>
		<v:layer v:name="连接线" v:index="0"/>
		<v:layer v:name="电气" v:index="1"/>
		<g id="shape1-1" v:mID="1" v:groupContext="shape" transform="translate(223.277,-280.325)">
			<title>矩形</title>
			<desc>FET</desc>
			<v:userDefs>
				<v:ud v:nameU="visVersion" v:val="VT0(15):26"/>
			</v:userDefs>
			<v:textBlock v:margins="rect(4,4,4,4)" v:tabSpace="42.5197"/>
			<v:textRect cx="35.4331" cy="320.59" width="70.87" height="44.2913"/>
			<rect x="0" y="298.445" width="70.8661" height="44.2913" class="st1"/>
			<text x="17.43" y="327.79" class="st2" v:langID="2052"><v:paragraph v:horizAlign="1"/><v:tabList/>FET</text>		</g>
		<g id="shape2-4" v:mID="2" v:groupContext="shape" transform="translate(67.7263,-198.12)">
			<title>矩形.2</title>
			<desc>JFET</desc>
			<v:userDefs>
				<v:ud v:nameU="visVersion" v:val="VT0(15):26"/>
			</v:userDefs>
			<v:textBlock v:margins="rect(4,4,4,4)" v:tabSpace="42.5197"/>
			<v:textRect cx="35.4331" cy="320.59" width="70.87" height="44.2913"/>
			<rect x="0" y="298.445" width="70.8661" height="44.2913" class="st1"/>
			<text x="11.43" y="327.79" class="st2" v:langID="2052"><v:paragraph v:horizAlign="1"/><v:tabList/>JFET</text>		</g>
		<g id="shape3-7" v:mID="3" v:groupContext="shape" transform="translate(343.75,-198.12)">
			<title>矩形.3</title>
			<desc>MOS FET</desc>
			<v:userDefs>
				<v:ud v:nameU="visVersion" v:val="VT0(15):26"/>
			</v:userDefs>
			<v:textBlock v:margins="rect(4,4,4,4)" v:tabSpace="42.5197"/>
			<v:textRect cx="56.6929" cy="320.59" width="113.39" height="44.2913"/>
			<rect x="0" y="298.445" width="113.386" height="44.2913" class="st1"/>
			<text x="14.69" y="327.79" class="st2" v:langID="2052"><v:paragraph v:horizAlign="1"/><v:tabList/>MOS FET</text>		</g>
		<g id="shape4-10" v:mID="4" v:groupContext="shape" transform="translate(18.12,-19.0058)">
			<title>矩形.4</title>
			<desc>N沟道</desc>
			<v:userDefs>
				<v:ud v:nameU="visVersion" v:val="VT0(15):26"/>
			</v:userDefs>
			<v:textBlock v:margins="rect(4,4,4,4)" v:tabSpace="42.5197"/>
			<v:textRect cx="35.4331" cy="320.59" width="70.87" height="44.2913"/>
			<rect x="0" y="298.445" width="70.8661" height="44.2913" class="st1"/>
			<text x="5.43" y="327.79" class="st2" v:langID="2052"><v:paragraph v:horizAlign="1"/><v:tabList/>N沟道</text>		</g>
		<g id="shape5-13" v:mID="5" v:groupContext="shape" transform="translate(110.246,-19.0058)">
			<title>矩形.5</title>
			<desc>P沟道</desc>
			<v:userDefs>
				<v:ud v:nameU="visVersion" v:val="VT0(15):26"/>
			</v:userDefs>
			<v:textBlock v:margins="rect(4,4,4,4)" v:tabSpace="42.5197"/>
			<v:textRect cx="35.4331" cy="320.59" width="70.87" height="44.2913"/>
			<rect x="0" y="298.445" width="70.8661" height="44.2913" class="st1"/>
			<text x="5.43" y="327.79" class="st2" v:langID="2052"><v:paragraph v:horizAlign="1"/><v:tabList/>P沟道</text>		</g>
		<g id="shape6-16" v:mID="6" v:groupContext="shape" transform="translate(58.868,-116.447)">
			<title>矩形.6</title>
			<desc>耗尽型</desc>
			<v:userDefs>
				<v:ud v:nameU="visVersion" v:val="VT0(15):26"/>
			</v:userDefs>
			<v:textBlock v:margins="rect(4,4,4,4)" v:tabSpace="42.5197"/>
			<v:textRect cx="44.2913" cy="320.59" width="88.59" height="44.2913"/>
			<rect x="0" y="298.445" width="88.5827" height="44.2913" class="st1"/>
			<text x="8.29" y="327.79" class="st2" v:langID="2052"><v:paragraph v:horizAlign="1"/><v:tabList/>耗尽型</text>		</g>
		<g id="shape7-19" v:mID="7" v:groupContext="shape" transform="translate(253.75,-108.829)">
			<title>矩形.7</title>
			<desc>耗尽型</desc>
			<v:userDefs>
				<v:ud v:nameU="visVersion" v:val="VT0(15):26"/>
			</v:userDefs>
			<v:textBlock v:margins="rect(4,4,4,4)" v:tabSpace="42.5197"/>
			<v:textRect cx="44.2913" cy="320.59" width="88.59" height="44.2913"/>
			<rect x="0" y="298.445" width="88.5827" height="44.2913" class="st1"/>
			<text x="8.29" y="327.79" class="st2" v:langID="2052"><v:paragraph v:horizAlign="1"/><v:tabList/>耗尽型</text>		</g>
		<g id="shape8-22" v:mID="8" v:groupContext="shape" transform="translate(438.002,-110.246)">
			<title>矩形.8</title>
			<desc>增强型</desc>
			<v:userDefs>
				<v:ud v:nameU="visVersion" v:val="VT0(15):26"/>
			</v:userDefs>
			<v:textBlock v:margins="rect(4,4,4,4)" v:tabSpace="42.5197"/>
			<v:textRect cx="44.2913" cy="320.59" width="88.59" height="44.2913"/>
			<rect x="0" y="298.445" width="88.5827" height="44.2913" class="st1"/>
			<text x="8.29" y="327.79" class="st2" v:langID="2052"><v:paragraph v:horizAlign="1"/><v:tabList/>增强型</text>		</g>
		<g id="shape9-25" v:mID="9" v:groupContext="shape" transform="translate(214.774,-18.12)">
			<title>矩形.9</title>
			<desc>N沟道</desc>
			<v:userDefs>
				<v:ud v:nameU="visVersion" v:val="VT0(15):26"/>
			</v:userDefs>
			<v:textBlock v:margins="rect(4,4,4,4)" v:tabSpace="42.5197"/>
			<v:textRect cx="35.4331" cy="320.59" width="70.87" height="44.2913"/>
			<rect x="0" y="298.445" width="70.8661" height="44.2913" class="st1"/>
			<text x="5.43" y="327.79" class="st2" v:langID="2052"><v:paragraph v:horizAlign="1"/><v:tabList/>N沟道</text>		</g>
		<g id="shape10-28" v:mID="10" v:groupContext="shape" transform="translate(306.9,-18.12)">
			<title>矩形.10</title>
			<desc>P沟道</desc>
			<v:userDefs>
				<v:ud v:nameU="visVersion" v:val="VT0(15):26"/>
			</v:userDefs>
			<v:textBlock v:margins="rect(4,4,4,4)" v:tabSpace="42.5197"/>
			<v:textRect cx="35.4331" cy="320.59" width="70.87" height="44.2913"/>
			<rect x="0" y="298.445" width="70.8661" height="44.2913" class="st1"/>
			<text x="5.43" y="327.79" class="st2" v:langID="2052"><v:paragraph v:horizAlign="1"/><v:tabList/>P沟道</text>		</g>
		<g id="shape11-31" v:mID="11" v:groupContext="shape" transform="translate(402.569,-19.0058)">
			<title>矩形.11</title>
			<desc>N沟道</desc>
			<v:userDefs>
				<v:ud v:nameU="visVersion" v:val="VT0(15):26"/>
			</v:userDefs>
			<v:textBlock v:margins="rect(4,4,4,4)" v:tabSpace="42.5197"/>
			<v:textRect cx="35.4331" cy="320.59" width="70.87" height="44.2913"/>
			<rect x="0" y="298.445" width="70.8661" height="44.2913" class="st1"/>
			<text x="5.43" y="327.79" class="st2" v:langID="2052"><v:paragraph v:horizAlign="1"/><v:tabList/>N沟道</text>		</g>
		<g id="shape12-34" v:mID="12" v:groupContext="shape" transform="translate(494.695,-19.0058)">
			<title>矩形.12</title>
			<desc>P沟道</desc>
			<v:userDefs>
				<v:ud v:nameU="visVersion" v:val="VT0(15):26"/>
			</v:userDefs>
			<v:textBlock v:margins="rect(4,4,4,4)" v:tabSpace="42.5197"/>
			<v:textRect cx="35.4331" cy="320.59" width="70.87" height="44.2913"/>
			<rect x="0" y="298.445" width="70.8661" height="44.2913" class="st1"/>
			<text x="5.43" y="327.79" class="st2" v:langID="2052"><v:paragraph v:horizAlign="1"/><v:tabList/>P沟道</text>		</g>
		<g id="shape23-37" v:mID="23" v:groupContext="shape" v:layerMember="0" transform="translate(251.624,-281.476)">
			<title>动态连接线</title>
			<path d="M7.09 343.89 L7.09 355.76" class="st3"/>
		</g>
		<g id="shape41-40" v:mID="41" v:groupContext="shape" transform="translate(257.293,-265.62)">
			<title>工作表.41</title>
			<v:userDefs>
				<v:ud v:nameU="visVersion" v:val="VT0(15):26"/>
				<v:ud v:nameU="visDisableIncLayout" v:prompt="" v:val="VT0(1):26"/>
				<v:ud v:nameU="visIsJunction" v:prompt="" v:val="VT0(1):26"/>
			</v:userDefs>
			<path d="M0 341.32 A1.41732 1.41732 0 0 1 2.83 341.32 A1.41732 1.41732 0 1 1 0 341.32 Z" class="st4"/>
		</g>
		<g id="shape42-42" v:mID="42" v:groupContext="shape" v:layerMember="0" transform="translate(257.293,-267.037)">
			<title>动态连接线.42</title>
			<path d="M0 342.74 L-154.13 342.74 L-154.13 367.36" class="st3"/>
		</g>
		<g id="shape43-45" v:mID="43" v:groupContext="shape" v:layerMember="0" transform="translate(260.128,-267.037)">
			<title>动态连接线.43</title>
			<path d="M0 342.74 L140.31 342.74 L140.31 367.36" class="st3"/>
		</g>
		<g id="shape44-48" v:mID="44" v:groupContext="shape" v:layerMember="0" transform="translate(96.0728,-198.12)">
			<title>动态连接线.44</title>
			<path d="M7.09 342.74 L7.09 380.12" class="st3"/>
		</g>
		<g id="shape45-51" v:mID="45" v:groupContext="shape" v:layerMember="0" transform="translate(298.041,-153.12)">
			<title>动态连接线.45</title>
			<path d="M0 342.74 L0 316.69 L100.98 316.69" class="st3"/>
		</g>
		<g id="shape46-54" v:mID="46" v:groupContext="shape" v:layerMember="0" transform="translate(53.5531,-63.2972)">
			<title>动态连接线.46</title>
			<path d="M0 342.74 L0 317.58 L48.19 317.58" class="st3"/>
		</g>
		<g id="shape47-57" v:mID="47" v:groupContext="shape" v:layerMember="0" transform="translate(250.207,-62.4113)">
			<title>动态连接线.47</title>
			<path d="M0 342.74 L0 319.53 L46.42 319.53" class="st3"/>
		</g>
		<g id="shape48-60" v:mID="48" v:groupContext="shape" v:layerMember="0" transform="translate(438.002,-63.2972)">
			<title>动态连接线.48</title>
			<path d="M0 342.74 L0 318.46 L42.87 318.46" class="st3"/>
		</g>
		<g id="shape50-63" v:mID="50" v:groupContext="shape" transform="translate(399.026,-177.746)">
			<title>工作表.50</title>
			<v:userDefs>
				<v:ud v:nameU="visVersion" v:val="VT0(15):26"/>
				<v:ud v:nameU="visDisableIncLayout" v:prompt="" v:val="VT0(1):26"/>
				<v:ud v:nameU="visIsJunction" v:prompt="" v:val="VT0(1):26"/>
			</v:userDefs>
			<path d="M0 341.32 A1.41732 1.41732 0 0 1 2.83 341.32 A1.41732 1.41732 0 1 1 0 341.32 Z" class="st4"/>
		</g>
		<g id="shape52-65" v:mID="52" v:groupContext="shape" v:layerMember="0" transform="translate(401.86,-179.163)">
			<title>动态连接线.52</title>
			<path d="M0 342.74 L80.43 342.74 L80.43 367.36" class="st3"/>
		</g>
		<g id="shape53-68" v:mID="53" v:groupContext="shape" transform="translate(296.624,-84.2027)">
			<title>工作表.53</title>
			<v:userDefs>
				<v:ud v:nameU="visVersion" v:val="VT0(15):26"/>
				<v:ud v:nameU="visDisableIncLayout" v:prompt="" v:val="VT0(1):26"/>
				<v:ud v:nameU="visIsJunction" v:prompt="" v:val="VT0(1):26"/>
			</v:userDefs>
			<path d="M0 341.32 A1.41732 1.41732 0 0 1 2.83 341.32 A1.41732 1.41732 0 1 1 0 341.32 Z" class="st4"/>
		</g>
		<g id="shape55-70" v:mID="55" v:groupContext="shape" v:layerMember="0" transform="translate(299.459,-85.62)">
			<title>动态连接线.55</title>
			<path d="M0 342.74 L42.87 342.74 L42.87 365.94" class="st3"/>
		</g>
		<g id="shape56-73" v:mID="56" v:groupContext="shape" transform="translate(480.876,-86.1515)">
			<title>工作表.56</title>
			<v:userDefs>
				<v:ud v:nameU="visVersion" v:val="VT0(15):26"/>
				<v:ud v:nameU="visDisableIncLayout" v:prompt="" v:val="VT0(1):26"/>
				<v:ud v:nameU="visIsJunction" v:prompt="" v:val="VT0(1):26"/>
			</v:userDefs>
			<path d="M0 341.32 A1.41732 1.41732 0 0 1 2.83 341.32 A1.41732 1.41732 0 1 1 0 341.32 Z" class="st4"/>
		</g>
		<g id="shape58-75" v:mID="58" v:groupContext="shape" v:layerMember="0" transform="translate(483.711,-87.5688)">
			<title>动态连接线.58</title>
			<path d="M0 342.74 L46.42 342.74 L46.42 367.01" class="st3"/>
		</g>
		<g id="shape59-78" v:mID="59" v:groupContext="shape" transform="translate(101.742,-87.0373)">
			<title>工作表.59</title>
			<v:userDefs>
				<v:ud v:nameU="visVersion" v:val="VT0(15):26"/>
				<v:ud v:nameU="visDisableIncLayout" v:prompt="" v:val="VT0(1):26"/>
				<v:ud v:nameU="visIsJunction" v:prompt="" v:val="VT0(1):26"/>
			</v:userDefs>
			<path d="M0 341.32 A1.41732 1.41732 0 0 1 2.83 341.32 A1.41732 1.41732 0 1 1 0 341.32 Z" class="st4"/>
		</g>
		<g id="shape60-80" v:mID="60" v:groupContext="shape" v:layerMember="0" transform="translate(104.577,-88.4546)">
			<title>动态连接线.60</title>
			<path d="M0 342.74 L41.1 342.74 L41.1 367.89" class="st3"/>
		</g>
		<g id="shape61-83" v:mID="61" v:groupContext="shape" v:layerMember="0" transform="translate(393.356,-180.581)">
			<title>动态连接线.61</title>
			<path d="M7.09 342.74 L7.09 325.2" class="st3"/>
		</g>
		<g id="shape62-86" v:mID="62" v:groupContext="shape" v:layerMember="0" transform="translate(475.207,-88.9861)">
			<title>动态连接线.62</title>
			<path d="M7.09 342.74 L7.09 321.48" class="st3"/>
		</g>
		<g id="shape63-89" v:mID="63" v:groupContext="shape" v:layerMember="0" transform="translate(290.955,-87.0373)">
			<title>动态连接线.63</title>
			<path d="M7.09 342.74 L7.09 320.94" class="st3"/>
		</g>
		<g id="shape64-92" v:mID="64" v:groupContext="shape" v:layerMember="0" transform="translate(96.0728,-89.872)">
			<title>动态连接线.64</title>
			<path d="M7.09 342.74 L7.09 316.16" class="st3"/>
		</g>
	</g>
</svg>
